<svg xmlns="http://www.w3.org/2000/svg" width="32" height="48" data-sprite-id="arcade_pinball" data-tags="game,pinball,interactive" shape-rendering="crispEdges" viewBox="0 0 32 48"><path fill="var(--sprite-ink-900, #1a1310)" d="M4 2h24v11H4z"/><path fill="var(--sprite-accent-500, var(--accent))" d="M5 3h22v9H5z"/><path fill="var(--sprite-accent-300, color-mix(in srgb, var(--accent), white 30%))" d="M5 3h22v1H5z"/><path fill="var(--sprite-accent-300, color-mix(in srgb, var(--accent), white 30%))" d="M5 3h1v9H5z"/><path fill="var(--sprite-accent-700, color-mix(in srgb, var(--accent), black 26%))" d="M26 4h1v8h-1z"/><path fill="var(--sprite-accent-700, color-mix(in srgb, var(--accent), black 26%))" d="M5 11h22v1H5z"/><path fill="var(--sprite-bronze-500, #c2711f)" d="M8 4h16v2H8z"/><path fill="var(--sprite-accent-100, color-mix(in srgb, var(--accent), white 58%))" d="M8 4h16v1H8z"/><path fill="var(--sprite-ink-900, #1a1310)" d="M10 7h12v4H10z"/><path fill="var(--sprite-accent-300, color-mix(in srgb, var(--accent), white 30%))" d="M11 8h2v1h-2zm3 0h1v1h-1zm2 0h2v1h-2zm3 0h2v1h-2z"/><path fill="var(--sprite-accent-500, var(--accent))" d="M12 9h1v1h-1zm5 0h1v1h-1zm3 0h1v1h-1z"/><path fill="var(--sprite-ink-900, #1a1310)" d="M3 13h26v1H3zm1 1h24v19H4z"/><path fill="var(--sprite-accent-900, color-mix(in srgb, var(--accent), black 46%))" d="M6 15h20v17H6z"/><path fill="var(--sprite-accent-700, color-mix(in srgb, var(--accent), black 26%))" d="M6 15h20v1H6z"/><path fill="var(--sprite-accent-700, color-mix(in srgb, var(--accent), black 26%))" d="M6 15h1v17H6z"/><path fill="var(--sprite-ink-700, #3a2c22)" d="M6 15h1v17H6zm19 0h1v17h-1z"/><path fill="var(--sprite-accent-300, color-mix(in srgb, var(--accent), white 30%))" d="M9 18h3v3H9z"/><path fill="var(--sprite-accent-100, color-mix(in srgb, var(--accent), white 58%))" d="M9 18h3v1H9z"/><path fill="var(--sprite-accent-700, color-mix(in srgb, var(--accent), black 26%))" d="M11 20h1v1h-1z"/><path fill="var(--sprite-bronze-500, #c2711f)" d="M19 17h3v3h-3z"/><path fill="var(--sprite-accent-100, color-mix(in srgb, var(--accent), white 58%))" d="M19 17h3v1h-3z"/><path fill="var(--sprite-ink-700, #3a2c22)" d="M21 19h1v1h-1z"/><path fill="var(--sprite-accent-300, color-mix(in srgb, var(--accent), white 30%))" d="M14 22h3v3h-3z"/><path fill="var(--sprite-accent-100, color-mix(in srgb, var(--accent), white 58%))" d="M14 22h3v1h-3z"/><path fill="var(--sprite-accent-700, color-mix(in srgb, var(--accent), black 26%))" d="M16 24h1v1h-1z"/><path fill="var(--sprite-accent-300, color-mix(in srgb, var(--accent), white 30%))" d="M19 25h2v2h-2z"/><path fill="var(--sprite-accent-100, color-mix(in srgb, var(--accent), white 58%))" d="M19 25h1v1h-1z"/><path fill="var(--sprite-accent-700, color-mix(in srgb, var(--accent), black 26%))" d="M20 26h1v1h-1z"/><path fill="var(--sprite-accent-300, color-mix(in srgb, var(--accent), white 30%))" d="M10 29h5v2h-5zm0-1h2v1h-2z"/><path fill="var(--sprite-accent-700, color-mix(in srgb, var(--accent), black 26%))" d="M13 30h2v1h-2z"/><path fill="var(--sprite-accent-300, color-mix(in srgb, var(--accent), white 30%))" d="M17 29h5v2h-5zm3-1h2v1h-2z"/><path fill="var(--sprite-accent-700, color-mix(in srgb, var(--accent), black 26%))" d="M17 30h2v1h-2z"/><path fill="var(--sprite-ink-900, #1a1310)" d="M4 33h24v12H4z"/><path fill="var(--sprite-accent-500, var(--accent))" d="M5 33h22v11H5z"/><path fill="var(--sprite-accent-300, color-mix(in srgb, var(--accent), white 30%))" d="M5 33h3v11H5z"/><path fill="var(--sprite-accent-300, color-mix(in srgb, var(--accent), white 30%))" d="M5 33h22v1H5z"/><path fill="var(--sprite-accent-700, color-mix(in srgb, var(--accent), black 26%))" d="M24 33h3v11h-3z"/><path fill="var(--sprite-accent-900, color-mix(in srgb, var(--accent), black 46%))" d="M5 43h22v1H5z"/><path fill="var(--sprite-accent-700, color-mix(in srgb, var(--accent), black 26%))" d="M21 36h1v1h-1zm1 1h1v1h-1zm-1 1h1v1h-1z"/><path fill="var(--sprite-accent-100, color-mix(in srgb, var(--accent), white 58%))" d="M5 33h22v1H5z"/><path fill="var(--sprite-bronze-500, #c2711f)" d="M24 35h2v7h-2z"/><path fill="var(--sprite-accent-100, color-mix(in srgb, var(--accent), white 58%))" d="M24 35h1v7h-1z"/><path fill="var(--sprite-accent-100, color-mix(in srgb, var(--accent), white 58%))" d="M24 35h2v1h-2zM8 38h2v2H8z"/><path fill="var(--sprite-accent-700, color-mix(in srgb, var(--accent), black 26%))" d="M9 39h1v1H9z"/><path fill="var(--sprite-ink-900, #1a1310)" d="M14 39h5v3h-5z"/><path fill="var(--sprite-bronze-500, #c2711f)" d="M15 40h3v1h-3z"/><path fill="var(--sprite-accent-100, color-mix(in srgb, var(--accent), white 58%))" d="M15 40h1v1h-1z"/><path fill="var(--sprite-ink-900, #1a1310)" d="M3 45h26v3H3z"/><path fill="var(--sprite-ink-700, #3a2c22)" d="M3 45h24v1H3z"/></svg>