<svg xmlns="http://www.w3.org/2000/svg" width="40" height="48" data-sprite-id="arcade_cocktail" data-tags="game,arcade,cocktail,table,interactive" shape-rendering="crispEdges" viewBox="0 0 40 48"><path fill="#1a0d02" d="M4 14h32v14H4z"/><path fill="#3a1f04" d="M5 15h30v12H5z"/><path fill="#0a1428" d="M9 17h22v8H9z"/><path fill="#22c55e" d="M11 19h2v2h-2z"/><path fill="var(--accent, #c2711f)" d="M14 20h3v2h-3z"/><path fill="#ef4444" d="M18 19h2v2h-2z"/><path fill="#3b82f6" d="M22 20h3v2h-3z"/><path fill="var(--accent-2, #f3c07a)" d="M27 19h2v2h-2z"/><path fill="#fbbf24" d="M13 22h2v1h-2z"/><path fill="#ef4444" d="M20 23h3v1h-3z"/><path fill="#22c55e" d="M26 22h2v1h-2z"/><path fill="#5c3318" d="M4 14h32v1H4z"/><path fill="#1a0d02" d="M3 21h3v3H3z"/><path fill="#ef4444" d="M3 20h2v2H3z"/><path fill="#1a0d02" d="M34 18h3v3h-3z"/><path fill="#3b82f6" d="M34 17h2v2h-2z"/><path fill="#0f0d0a" d="M6 28h3v14H6z"/><path fill="#1a0d02" d="M7 29h2v12H7z"/><path fill="#0f0d0a" d="M31 28h3v14h-3z"/><path fill="#1a0d02" d="M32 29h2v12h-2z"/><path fill="#0f0d0a" d="M19 28h2v14h-2z"/><path fill="#0a0805" d="M4 42h32v3H4z"/><path d="M3 45h34v3H3z"/></svg>