<svg xmlns="http://www.w3.org/2000/svg" width="32" height="48" data-sprite-id="musician_viola" data-tags="music,viola,strings,musician,person" shape-rendering="crispEdges" viewBox="0 0 32 48"><path fill="#2a1810" d="M10 3h11v3H10z"/><path fill="#2a1810" d="M9 5h13v2H9z"/><path fill="#e8b288" d="M11 7h10v6H11z"/><path fill="#18150f" d="M13 9h2v1h-2zm4 0h2v1h-2z"/><path fill="#c2711f" d="M14 11h4v1h-4z" opacity=".5"/><path fill="#e8b288" d="M13 13h6v1h-6z"/><path fill="var(--accent-3, #f3c07a)" d="M10 14h12v14H10z"/><path fill="#0f0d0a" d="M14 15h4v2h-4z" opacity=".4"/><path fill="#1a0d02" d="M10 28h12v13H10z"/><path fill="#7e3f0c" d="M1 10h2v8H1z"/><path fill="#a85c1a" d="M3 8h8v12H3z"/><path fill="#c87018" d="M4 9h6v10H4z"/><path fill="#18150f" d="M5 11h2v1H5zm0 4h2v1H5z"/><path fill="#c8a070" d="M1 21h14v1H1z"/><path fill="#3a1f04" d="M1 22h14v1H1z" opacity=".6"/><path fill="var(--accent-3, #f3c07a)" d="M13 18h2v5h-2z"/><path fill="#e8b288" d="M12 21h2v2h-2z"/><path fill="var(--accent-3, #f3c07a)" d="M7 14h3v6H7z"/><path fill="#e8b288" d="M5 18h3v2H5z"/><path fill="#1a0d02" d="M10 41h5v2h-5zm7 0h5v2h-5z"/></svg>