<svg xmlns="http://www.w3.org/2000/svg" viewBox="0 0 100 100"><rect width="36" height="16" x="52" y="42" fill="currentColor" opacity=".2" rx="8"/><rect width="34" height="14" x="53" y="43" fill="none" stroke="currentColor" stroke-width="1.5" rx="7"/><path stroke="currentColor" d="M64 44v12m6-12v12m6-12v12" opacity=".3"/><rect width="24" height="12" x="30" y="44" fill="currentColor" opacity=".3" rx="2"/><rect width="22" height="10" x="31" y="45" fill="none" stroke="currentColor" stroke-width="1.2" rx="1.5"/><path stroke="currentColor" stroke-width="1.5" d="M37 45v10m6-10v10" opacity=".4"/><rect width="18" height="6" x="14" y="47" fill="currentColor" opacity=".4" rx="1"/><path fill="var(--accent, currentcolor)" d="m14 47-6 3 6 3Z" opacity=".9"/><circle cx="9" cy="50" r="4" fill="var(--accent, currentcolor)" opacity=".15"/><circle cx="9" cy="50" r="2" fill="var(--accent, currentcolor)" opacity=".25"/><path fill="none" stroke="var(--accent, currentcolor)" stroke-linecap="round" d="M12 44q2-4 0-8" opacity=".5"/><path fill="none" stroke="var(--accent, currentcolor)" stroke-linecap="round" d="M16 43q2-5 0-9" opacity=".35"/><path fill="none" stroke="currentColor" stroke-linecap="round" stroke-width="2.5" d="M88 50q6 0 6 6t-4 8" opacity=".4"/><circle cx="90" cy="65" r="2" fill="currentColor" opacity=".35"/></svg>