<svg xmlns="http://www.w3.org/2000/svg" viewBox="0 0 100 100"><rect width="88" height="6" x="6" y="60" fill="currentColor" opacity=".4" rx="1.5"/><rect width="88" height="6" x="6" y="88" fill="currentColor" opacity=".3" rx="1.5"/><rect width="6" height="88" x="6" y="8" fill="currentColor" opacity=".3" rx="2"/><rect width="6" height="88" x="88" y="8" fill="currentColor" opacity=".3" rx="2"/><rect width="9" height="36" x="16" y="24" fill="var(--accent, currentcolor)" opacity=".7" rx="1"/><rect width="7" height="34" x="17" y="25" fill="none" stroke="currentColor" stroke-width=".5" opacity=".3" rx=".5"/><rect width="8" height="28" x="26" y="32" fill="currentColor" opacity=".35" rx="1"/><rect width="7" height="22" x="35" y="38" fill="var(--accent-2, currentcolor)" opacity=".55" rx="1"/><rect width="10" height="38" x="43" y="22" fill="currentColor" opacity=".28" rx="1"/><rect width="8" height="30" x="54" y="30" fill="var(--accent, currentcolor)" opacity=".45" rx="1"/><rect width="7" height="20" x="63" y="40" fill="currentColor" opacity=".4" rx="1"/><rect width="9" height="34" x="71" y="26" fill="currentColor" opacity=".3" rx="1"/><circle cx="82" cy="57" r="3" fill="currentColor" opacity=".3"/><circle cx="82" cy="57" r="3" fill="none" stroke="currentColor" opacity=".4"/><rect width="12" height="20" x="16" y="68" fill="currentColor" opacity=".3" rx="1"/><rect width="9" height="18" x="29" y="70" fill="var(--accent, currentcolor)" opacity=".4" rx="1"/><rect width="14" height="20" x="39" y="68" fill="currentColor" opacity=".22" rx="1"/><rect width="8" height="16" x="54" y="72" fill="currentColor" opacity=".3" rx="1"/><rect width="10" height="20" x="63" y="68" fill="var(--accent-2, currentcolor)" opacity=".4" rx="1"/></svg>